# xmcd
#
# Track frame offsets:
# 150
# 24871
# 49147
# 94146
# 109019
# 126883
# 143269
# 159127
# 183853
# 205432
# 222294
# 247133
#
# Disc length: 3489 seconds
#
#
# Revision: 0
# Processed by: cddbd v1.5PL3 Copyright (c) Steve Scherf et al.
# Submitted via: FreeRIP 2.60 
#
DISCID=9d0d9f0c
DTITLE=Jeff Liberty and Electric Mud - I Told You So
DYEAR=2003
DGENRE=Blues
TTITLE0=Payday
TTITLE1=I Told You So
TTITLE2=You've Got To Find Some Other Way
TTITLE3=Tell Me That You Feel Like I Do
TTITLE4=Walk On By
TTITLE5=Temptation Or Reward
TTITLE6=Since I Seen The Last Of You
TTITLE7=Love Tears And Joy
TTITLE8=All My Might
TTITLE9=Rollin' Away
TTITLE10=Women Want Men
TTITLE11=Pater Familiues (Rubber Monkey's Uncle)
EXTD=Bluesfestradio.com
EXTT0=
EXTT1=
EXTT2=
EXTT3=
EXTT4=
EXTT5=
EXTT6=
EXTT7=
EXTT8=
EXTT9=
EXTT10=
EXTT11=
PLAYORDER=
